<?xml version="1.0" encoding="utf-8"?>
<!-- Generator: Adobe Illustrator 23.0.0, SVG Export Plug-In . SVG Version: 6.00 Build 0)  -->
<svg version="1.1" id="Capa_1" xmlns="http://www.w3.org/2000/svg" xmlns:xlink="http://www.w3.org/1999/xlink" x="0px" y="0px"
	 viewBox="0 0 673 743" style="enable-background:new 0 0 673 743;" xml:space="preserve">
<style type="text/css">
	.st0{fill:none;stroke:#000000;stroke-width:17;stroke-miterlimit:10;}
</style>
<g>
	<path class="st0" d="M397.9,120.1c-6-41.5-20.1-76.9-37.7-94.5c-5.7-5.7-11.3-9-16.8-10.2c-0.6-0.2-2.3-0.6-4.5-0.6
		c-2.2,0-3.8,0.4-4.1,0.5c-5.8,1.2-11.4,4.5-17.1,10.2c-17.6,17.6-31.6,52.9-37.6,94.5c-4.8,33.6-3.8,73.1-2.4,127.8
		c0.2,9.3,0.5,19,0.7,29.3l-67,36.1l0-0.3c0-4.3-1.8-8.5-4.7-11.4c-3.1-3.1-7.3-4.8-11.6-4.8l-18.6,0c-4.3,0-8.5,1.7-11.6,4.8
		c-3.1,3.1-4.8,7.2-4.8,11.5l0,27.9l-9.6,5.2c-0.4-3.6-2.1-7-4.6-9.5c-3.1-3.2-7.2-4.9-11.6-4.9l-18.7,0c-4.3,0-8.5,1.7-11.6,4.8
		c-3.1,3.1-4.8,7.2-4.7,11.5l0,25.6l-68.1,36.7c-1.5,0.8-2.9,1.9-4.3,3.2c-3.7,3.8-5.7,8.6-5.8,13.6l0,36.9c0,4.2,1.7,8.2,4.4,10.8
		c3.9,4,9.7,5.5,15.1,3.9l171.8-48.6c0.8-0.2,3.6-0.6,4.7-0.6l62.8,0c1.6,60.4,5.4,116.5,11.1,163c0.5,4.3,1.1,8.5,1.6,12.6
		l-93,77.5c-0.5,0.4-1,0.8-1.6,1.4c-3.8,4-6.1,9.4-6.2,14.9l0,17.2c0,4.2,1.6,8.2,4.3,10.9c4.1,4.2,10.4,5.5,15.8,3.4l88.5-31.5
		c0.8-0.3,3.1-0.6,3.9-0.7l9.9,0c2.8,5.9,5.8,10.5,9.1,13.9c4.5,4.5,9.7,6.9,15.2,6.9l0.4,0l0.1,0c5.6-0.1,10.6-2.4,15.2-6.9
		c3.2-3.3,6.2-7.9,9.1-13.8l10.1,0c0.8,0,3.1,0.4,3.8,0.7l88.3,31.4c5.6,2.1,11.8,0.8,15.9-3.3l0.1-0.1c2.8-2.8,4.4-6.7,4.4-10.8
		l0-17.6c-0.1-5.4-2.4-10.7-6.3-14.7c-0.5-0.5-0.9-0.8-1.1-1l-93.4-77.8c0.6-4.1,1.1-8.3,1.7-12.6c5.7-46.6,9.5-102.8,11-163l62.9,0
		c1,0,3.7,0.3,4.7,0.6l171.5,48.6c5.4,1.7,11.2,0.3,15.2-3.7c2.9-2.9,4.4-6.7,4.4-10.9l0-37.1c-0.1-4.9-2.2-9.7-5.9-13.5
		c-1.3-1.3-2.7-2.3-4.1-3.1l-68.1-36.7l0-25.6c0-4.3-1.7-8.5-4.8-11.5c-3.1-3.1-7.1-4.8-11.5-4.8l-18.7,0c-4.3,0-8.5,1.7-11.5,4.8
		c-2.6,2.6-4.2,6-4.7,9.5l-9.5-5.1l0-27.9c0-4.3-1.8-8.5-4.8-11.5c-3.1-3.1-7.2-4.8-11.5-4.8h-18.7c-4.3,0-8.5,1.7-11.6,4.8
		c-3.1,3.1-4.8,7.3-4.8,11.6l0,0.2l-67-36.1c0.3-10.4,0.5-20.3,0.8-29.7C401.7,192.9,402.8,153.6,397.9,120.1z"/>
</g>
</svg>
