<?xml version="1.0" encoding="iso-8859-1"?>
<!-- Generator: Adobe Illustrator 19.0.0, SVG Export Plug-In . SVG Version: 6.00 Build 0)  -->
<svg version="1.1" id="Capa_1" xmlns="http://www.w3.org/2000/svg" xmlns:xlink="http://www.w3.org/1999/xlink" x="0px" y="0px"
	 viewBox="0 0 511.786 511.786" style="enable-background:new 0 0 511.786 511.786;" xml:space="preserve">
<g>
	<g>
		<path d="M118.782,181.164l-15.993-16.056c-1.554-1.573-4.089-1.577-5.654-0.008c-1.562,1.558-1.57,4.088-0.008,5.654
			l15.994,16.056c0.781,0.785,1.804,1.175,2.831,1.175c1.018,0,2.042-0.386,2.822-1.167
			C120.336,185.26,120.344,182.73,118.782,181.164z"/>
	</g>
</g>
<g>
	<g>
		<path d="M102.777,165.095c-1.554-1.557-4.096-1.546-5.654,0.016l-15.985,16.056c-1.558,1.562-1.55,4.096,0.016,5.654
			c0.776,0.778,1.799,1.164,2.819,1.164c1.026,0,2.054-0.394,2.834-1.18l15.986-16.056
			C104.35,169.187,104.342,166.654,102.777,165.095z"/>
	</g>
</g>
<g>
	<g>
		<path d="M118.786,37.229c-1.574-1.558-4.096-1.577-5.658-0.012L97.135,53.144c-1.562,1.558-1.57,4.093-0.012,5.658
			c0.785,0.781,1.808,1.175,2.835,1.175c1.019,0,2.042-0.387,2.823-1.163l15.993-15.927
			C120.336,41.329,120.344,38.795,118.786,37.229z"/>
	</g>
</g>
<g>
	<g>
		<path d="M102.781,53.143L86.787,37.216c-1.565-1.557-4.099-1.538-5.657,0.012c-1.558,1.566-1.55,4.1,0.012,5.658l15.993,15.927
			c0.781,0.778,1.803,1.164,2.823,1.164c1.027,0,2.054-0.395,2.835-1.176C104.35,57.235,104.343,54.701,102.781,53.143z"/>
	</g>
</g>
<g>
	<g>
		<path d="M99.958,27.989c-2.21,0-3.999,1.789-3.999,3.999v159.933c0,2.21,1.789,3.998,3.999,3.998s3.998-1.788,3.998-3.998V31.988
			C103.956,29.778,102.168,27.989,99.958,27.989z"/>
	</g>
</g>
<g>
	<g>
		<path d="M46.813,109.128c-1.558-1.566-4.092-1.57-5.654-0.008l-16.056,15.997c-1.562,1.558-1.57,4.089-0.008,5.654
			c0.781,0.785,1.804,1.175,2.831,1.175c1.019,0,2.042-0.39,2.822-1.167l16.057-15.997
			C48.367,113.224,48.375,110.694,46.813,109.128z"/>
	</g>
</g>
<g>
	<g>
		<path d="M46.801,109.116L30.745,93.13c-1.554-1.557-4.092-1.546-5.654,0.016c-1.557,1.562-1.549,4.096,0.016,5.654l16.056,15.985
			c0.777,0.778,1.799,1.164,2.819,1.164c1.026,0,2.054-0.394,2.835-1.179C48.374,113.208,48.366,110.674,46.801,109.116z"/>
	</g>
</g>
<g>
	<g>
		<path d="M174.693,125.129l-15.924-15.997c-1.561-1.562-4.099-1.582-5.653-0.016c-1.566,1.558-1.574,4.092-0.016,5.654
			l15.923,15.997c0.781,0.785,1.808,1.179,2.835,1.179c1.018,0,2.042-0.386,2.819-1.163
			C176.243,129.225,176.251,126.691,174.693,125.129z"/>
	</g>
</g>
<g>
	<g>
		<path d="M174.681,93.125c-1.566-1.553-4.1-1.542-5.658,0.012l-15.923,15.99c-1.557,1.566-1.55,4.1,0.012,5.658
			c0.781,0.778,1.803,1.164,2.823,1.164c1.026,0,2.054-0.394,2.834-1.177l15.924-15.989
			C176.25,97.217,176.243,94.683,174.681,93.125z"/>
	</g>
</g>
<g>
	<g>
		<path d="M179.925,107.956H19.992c-2.21,0-3.998,1.788-3.998,3.998s1.788,3.999,3.998,3.999h159.932c2.21,0,4-1.789,4-3.999
			S182.135,107.956,179.925,107.956z"/>
	</g>
</g>
<g>
	<g>
		<path d="M147.938,75.97h-15.985c-2.21,0-3.998,1.788-3.998,3.998c0,2.21,1.788,3.998,3.998,3.998h15.985
			c2.21,0,3.998-1.788,3.998-3.998C151.936,77.758,150.148,75.97,147.938,75.97z"/>
	</g>
</g>
<g>
	<g>
		<path d="M131.945,59.976c-2.21,0-3.998,1.789-3.998,3.999v15.993c0,2.21,1.788,3.998,3.998,3.998s3.998-1.788,3.998-3.998V63.975
			C135.943,61.765,134.155,59.976,131.945,59.976z"/>
	</g>
</g>
<g>
	<g>
		<path d="M67.971,139.935c-2.21,0-3.998,1.789-3.998,3.999v15.996c0,2.21,1.788,3.999,3.998,3.999c2.211,0,3.999-1.788,3.999-3.998
			v-15.997C71.97,141.724,70.182,139.935,67.971,139.935z"/>
	</g>
</g>
<g>
	<g>
		<path d="M67.971,139.942H51.978c-2.21,0-3.998,1.789-3.998,3.999c0,2.21,1.788,3.999,3.998,3.999h15.993
			c2.211,0,3.999-1.789,3.999-3.999C71.97,141.731,70.182,139.942,67.971,139.942z"/>
	</g>
</g>
<g>
	<g>
		<path d="M86.791,125.121c-1.561-1.562-4.091-1.562-5.653,0l-31.986,31.987c-1.562,1.561-1.562,4.091,0,5.653
			c0.78,0.781,1.804,1.172,2.826,1.172c1.023,0,2.046-0.391,2.827-1.172l31.986-31.986
			C88.353,129.213,88.353,126.683,86.791,125.121z"/>
	</g>
</g>
<g>
	<g>
		<path d="M150.765,61.148c-1.561-1.562-4.092-1.562-5.654,0l-31.986,31.986c-1.562,1.562-1.562,4.092,0,5.654
			c0.781,0.781,1.804,1.171,2.827,1.171c1.022,0,2.045-0.39,2.827-1.17l31.986-31.987C152.327,65.24,152.327,62.71,150.765,61.148z"
			/>
	</g>
</g>
<g>
	<g>
		<path d="M67.963,75.97H51.978c-2.21,0-3.998,1.788-3.998,3.998c0,2.21,1.788,3.998,3.998,3.998h15.985
			c2.211,0,3.999-1.788,3.999-3.998C71.962,77.758,70.174,75.97,67.963,75.97z"/>
	</g>
</g>
<g>
	<g>
		<path d="M67.971,59.976c-2.21,0-3.998,1.789-3.998,3.999v15.993c0,2.21,1.788,3.998,3.998,3.998c2.211,0,3.999-1.788,3.999-3.998
			V63.975C71.97,61.765,70.182,59.976,67.971,59.976z"/>
	</g>
</g>
<g>
	<g>
		<path d="M131.945,139.935c-2.21,0-3.998,1.789-3.998,3.999v15.996c0,2.21,1.788,3.999,3.998,3.999s3.998-1.788,3.998-3.998
			v-15.997C135.943,141.724,134.155,139.935,131.945,139.935z"/>
	</g>
</g>
<g>
	<g>
		<path d="M147.938,139.942h-15.993c-2.21,0-3.998,1.789-3.998,3.999c0,2.21,1.788,3.999,3.998,3.999h15.993
			c2.21,0,3.998-1.789,3.998-3.999C151.936,141.731,150.148,139.942,147.938,139.942z"/>
	</g>
</g>
<g>
	<g>
		<path d="M150.765,157.108l-31.986-31.987c-1.562-1.562-4.092-1.562-5.654,0c-1.562,1.562-1.562,4.092,0,5.654l31.986,31.986
			c0.781,0.781,1.805,1.172,2.827,1.172c1.023,0,2.046-0.391,2.827-1.172C152.327,161.2,152.327,158.67,150.765,157.108z"/>
	</g>
</g>
<g>
	<g>
		<path d="M86.791,93.134L54.805,61.148c-1.561-1.562-4.091-1.562-5.653,0c-1.562,1.562-1.562,4.092,0,5.654l31.986,31.986
			c0.78,0.781,1.804,1.171,2.827,1.171s2.046-0.39,2.826-1.171C88.353,97.226,88.353,94.696,86.791,93.134z"/>
	</g>
</g>
<g>
	<g>
		<path d="M431.819,267.888c-8.816,0-15.993,7.177-15.993,15.993c0,8.816,7.177,15.993,15.993,15.993
			c8.816,0,15.993-7.177,15.993-15.993C447.812,275.065,440.635,267.888,431.819,267.888z M431.819,291.879
			c-4.412,0-7.997-3.585-7.997-7.997s3.585-7.996,7.997-7.996s7.996,3.584,7.996,7.996
			C439.815,288.294,436.231,291.879,431.819,291.879z"/>
	</g>
</g>
<g>
	<g>
		<path d="M426.164,272.575l-27.504-27.504c-1.561-1.562-4.092-1.562-5.654,0s-1.562,4.092,0,5.654l27.505,27.504
			c0.78,0.78,1.804,1.171,2.827,1.171s2.045-0.391,2.826-1.171C427.726,276.667,427.726,274.137,426.164,272.575z"/>
	</g>
</g>
<g>
	<g>
		<path d="M307.871,211.912h-87.963c-2.21,0-3.998,1.789-3.998,3.999c0,2.21,1.788,3.999,3.998,3.999h87.963
			c2.21,0,3.999-1.789,3.999-3.999C311.87,213.701,310.081,211.912,307.871,211.912z"/>
	</g>
</g>
<g>
	<g>
		<path d="M507.787,211.912h-87.963c-2.21,0-3.998,1.789-3.998,3.999c0,2.21,1.788,3.999,3.998,3.999h87.963
			c2.21,0,3.999-1.789,3.999-3.999C511.786,213.701,509.997,211.912,507.787,211.912z"/>
	</g>
</g>
<g>
	<g>
		<path d="M494.62,189.095c-1.561-1.562-4.092-1.562-5.654,0l-23.989,23.99c-1.562,1.561-1.562,4.091,0,5.653
			c0.78,0.781,1.804,1.172,2.826,1.172c1.024,0,2.047-0.391,2.827-1.171l23.99-23.99
			C496.182,193.187,496.181,190.657,494.62,189.095z"/>
	</g>
</g>
<g>
	<g>
		<path d="M494.62,237.074l-23.99-23.989c-1.561-1.562-4.091-1.562-5.653,0c-1.562,1.561-1.562,4.091,0,5.653l23.989,23.99
			c0.781,0.78,1.804,1.171,2.827,1.171c1.024,0,2.046-0.39,2.827-1.171C496.182,241.166,496.182,238.636,494.62,237.074z"/>
	</g>
</g>
<g>
	<g>
		<path d="M262.717,213.084l-23.989-23.99c-1.561-1.562-4.092-1.562-5.654,0c-1.562,1.562-1.562,4.092,0,5.654l23.99,23.99
			c0.781,0.781,1.804,1.172,2.827,1.172s2.046-0.391,2.826-1.173C264.279,217.176,264.279,214.646,262.717,213.084z"/>
	</g>
</g>
<g>
	<g>
		<path d="M262.717,213.085c-1.561-1.562-4.091-1.562-5.653,0l-23.99,23.989c-1.562,1.562-1.562,4.092,0,5.654
			c0.781,0.78,1.805,1.171,2.827,1.171c1.023,0,2.046-0.39,2.827-1.171l23.989-23.99
			C264.279,217.177,264.279,214.647,262.717,213.085z"/>
	</g>
</g>
<g>
	<g>
		<path d="M363.847,67.977c-2.21,0-3.998,1.789-3.998,3.999v87.962c0,2.21,1.788,3.999,3.998,3.999c2.21,0,3.998-1.789,3.998-3.998
			V71.976C367.845,69.765,366.057,67.977,363.847,67.977z"/>
	</g>
</g>
<g>
	<g>
		<path d="M363.847,267.889c-2.21,0-3.998,1.788-3.998,3.999v87.963c0,2.209,1.788,3.998,3.998,3.998
			c2.21,0,3.998-1.789,3.998-3.998v-87.963C367.845,269.677,366.057,267.889,363.847,267.889z"/>
	</g>
</g>
<g>
	<g>
		<path d="M390.664,341.031l-23.99-23.99c-1.562-1.562-4.092-1.562-5.654,0c-1.562,1.561-1.562,4.092,0,5.654l23.99,23.989
			c0.781,0.781,1.804,1.172,2.827,1.172s2.046-0.391,2.827-1.172C392.226,345.123,392.226,342.593,390.664,341.031z"/>
	</g>
</g>
<g>
	<g>
		<path d="M366.674,317.041c-1.562-1.562-4.092-1.562-5.654,0l-23.99,23.99c-1.562,1.561-1.562,4.091,0,5.653
			c0.781,0.781,1.805,1.172,2.828,1.172c1.022,0,2.045-0.391,2.826-1.172l23.99-23.989
			C368.236,321.133,368.236,318.603,366.674,317.041z"/>
	</g>
</g>
<g>
	<g>
		<path d="M390.664,85.142c-1.562-1.562-4.092-1.562-5.654,0l-23.99,23.99c-1.562,1.562-1.562,4.092,0,5.654
			c0.781,0.781,1.805,1.171,2.827,1.171c1.024,0,2.046-0.39,2.827-1.172l23.99-23.99C392.226,89.234,392.226,86.704,390.664,85.142z
			"/>
	</g>
</g>
<g>
	<g>
		<path d="M366.674,109.133l-23.99-23.99c-1.561-1.562-4.092-1.562-5.654,0c-1.562,1.561-1.562,4.091,0,5.653l23.99,23.99
			c0.781,0.781,1.805,1.171,2.827,1.171c1.024,0,2.046-0.39,2.827-1.17C368.236,113.225,368.236,110.695,366.674,109.133z"/>
	</g>
</g>
<g>
	<g>
		<path d="M406.657,213.085l-39.983-39.983c-1.562-1.562-4.092-1.562-5.654,0l-39.982,39.983c-1.562,1.561-1.562,4.091,0,5.653
			l39.982,39.983c0.781,0.781,1.805,1.171,2.827,1.171c1.024,0,2.046-0.39,2.827-1.171l39.983-39.983
			C408.219,217.177,408.219,214.647,406.657,213.085z M363.847,250.241l-34.329-34.33l34.329-34.33l34.329,34.33L363.847,250.241z"
			/>
	</g>
</g>
<g>
	<g>
		<path d="M431.819,131.946c-8.816,0-15.993,7.173-15.993,15.994c0,8.82,7.177,15.993,15.993,15.993
			c8.816,0,15.993-7.173,15.993-15.993C447.812,139.119,440.635,131.946,431.819,131.946z M431.819,155.936
			c-4.412,0-7.997-3.588-7.997-7.996c0-4.409,3.585-7.997,7.997-7.997s7.996,3.588,7.996,7.997
			C439.815,152.348,436.231,155.936,431.819,155.936z"/>
	</g>
</g>
<g>
	<g>
		<path d="M426.164,153.594c-1.561-1.562-4.091-1.562-5.653,0l-27.505,27.504c-1.562,1.562-1.562,4.092,0,5.654
			c0.781,0.781,1.805,1.171,2.827,1.171c1.024,0,2.046-0.39,2.827-1.171l27.504-27.504
			C427.726,157.686,427.726,155.156,426.164,153.594z"/>
	</g>
</g>
<g>
	<g>
		<path d="M295.883,267.888c-8.816,0-15.993,7.177-15.993,15.993c0,8.816,7.177,15.993,15.993,15.993
			c8.817,0,15.986-7.177,15.986-15.993C311.869,275.065,304.699,267.888,295.883,267.888z M295.883,291.879
			c-4.412,0-7.996-3.585-7.996-7.997s3.584-7.996,7.996-7.996c4.405,0,7.989,3.584,7.989,7.996
			C303.872,288.294,300.287,291.879,295.883,291.879z"/>
	</g>
</g>
<g>
	<g>
		<path d="M334.688,245.071c-1.562-1.562-4.092-1.562-5.654,0l-27.504,27.504c-1.562,1.561-1.562,4.092,0,5.654
			c0.781,0.78,1.804,1.171,2.827,1.171c1.022,0,2.046-0.391,2.827-1.171l27.504-27.504
			C336.25,249.163,336.25,246.633,334.688,245.071z"/>
	</g>
</g>
<g>
	<g>
		<path d="M295.875,131.946c-8.816,0-15.993,7.173-15.993,15.994c0,8.82,7.177,15.993,15.993,15.993
			c8.817,0,15.995-7.173,15.994-15.993C311.869,139.119,304.691,131.946,295.875,131.946z M295.875,155.936
			c-4.412,0-7.996-3.588-7.996-7.996c0-4.409,3.584-7.997,7.996-7.997c4.413,0,7.997,3.588,7.997,7.997
			C303.872,152.348,300.287,155.936,295.875,155.936z"/>
	</g>
</g>
<g>
	<g>
		<path d="M334.688,181.098l-27.504-27.504c-1.562-1.562-4.092-1.562-5.654,0s-1.562,4.092,0,5.654l27.504,27.504
			c0.781,0.781,1.804,1.171,2.827,1.171c1.022,0,2.046-0.39,2.827-1.171C336.25,185.19,336.25,182.66,334.688,181.098z"/>
	</g>
</g>
<g>
	<g>
		<path d="M363.847,195.919c-2.21,0-3.998,1.788-3.998,3.998v31.987c0,2.211,1.788,3.999,3.998,3.999
			c2.21,0,3.998-1.788,3.998-3.999v-31.987C367.845,197.707,366.057,195.919,363.847,195.919z"/>
	</g>
</g>
<g>
	<g>
		<path d="M379.84,211.912h-31.986c-2.21,0-3.998,1.789-3.998,3.999c0,2.21,1.788,3.999,3.998,3.999h31.986
			c2.21,0,3.998-1.789,3.998-3.999C383.838,213.701,382.05,211.912,379.84,211.912z"/>
	</g>
</g>
<g>
	<g>
		<path d="M432.061,279.884h-0.086c-2.202,0-3.951,1.788-3.951,3.998c0,2.21,1.827,3.998,4.037,3.998
			c2.202,0,3.998-1.788,3.998-3.998C436.059,281.672,434.263,279.884,432.061,279.884z"/>
	</g>
</g>
<g>
	<g>
		<path d="M432.061,143.941h-0.086c-2.202,0-3.951,1.789-3.951,3.999c0,2.21,1.827,3.998,4.037,3.998
			c2.202,0,3.998-1.788,3.998-3.998C436.059,145.73,434.263,143.941,432.061,143.941z"/>
	</g>
</g>
<g>
	<g>
		<path d="M296.118,143.941h-0.086c-2.202,0-3.951,1.789-3.951,3.999c0,2.21,1.827,3.998,4.037,3.998
			c2.202,0,3.998-1.788,3.998-3.998C300.116,145.73,298.32,143.941,296.118,143.941z"/>
	</g>
</g>
<g>
	<g>
		<path d="M296.118,279.884h-0.086c-2.202,0-3.951,1.788-3.951,3.998c0,2.21,1.827,3.998,4.037,3.998
			c2.202,0,3.998-1.788,3.998-3.998C300.116,281.672,298.32,279.884,296.118,279.884z"/>
	</g>
</g>
<g>
	<g>
		<path d="M136.716,381.013l-8.77-8.762v-12.4c0-2.211-1.789-3.999-3.999-3.999h-12.4l-8.762-8.762
			c-1.562-1.562-4.092-1.562-5.654,0l-8.762,8.762H75.968c-2.21,0-3.998,1.788-3.998,3.999v12.4l-8.762,8.762
			c-1.562,1.562-1.562,4.092,0,5.654l8.762,8.762v12.401c0,2.21,1.788,3.998,3.998,3.998h12.401l8.762,8.763
			c0.781,0.78,1.804,1.171,2.827,1.171s2.046-0.39,2.827-1.171l8.762-8.763h12.4c2.21,0,3.999-1.788,3.999-3.998v-12.401l8.77-8.762
			c0.75-0.75,1.171-1.765,1.171-2.827C137.887,382.779,137.466,381.763,136.716,381.013z M121.121,390.947
			c-0.75,0.75-1.172,1.765-1.172,2.827v10.058H109.89c-1.061,0-2.077,0.421-2.826,1.171l-7.106,7.106l-7.106-7.106
			c-0.75-0.75-1.765-1.171-2.827-1.171H79.966v-10.058c0-1.061-0.421-2.077-1.171-2.827l-7.106-7.106l7.106-7.106
			c0.75-0.75,1.171-1.764,1.171-2.826V363.85h10.059c1.062,0,2.077-0.422,2.827-1.172l7.106-7.105l7.106,7.105
			c0.749,0.75,1.764,1.172,2.826,1.172h10.059v10.059c0,1.061,0.422,2.076,1.172,2.826l7.11,7.106L121.121,390.947z"/>
	</g>
</g>
<g>
	<g>
		<path d="M51.977,379.842H3.998c-2.21,0-3.998,1.788-3.998,3.998c0,2.21,1.788,3.999,3.998,3.999h47.98
			c2.21,0,3.998-1.789,3.998-3.999C55.976,381.63,54.187,379.842,51.977,379.842z"/>
	</g>
</g>
<g>
	<g>
		<path d="M30.815,381.013c-1.561-1.562-4.091-1.562-5.653,0L9.169,397.007c-1.562,1.561-1.562,4.091,0,5.653
			c0.78,0.781,1.804,1.172,2.827,1.172c1.022,0,2.045-0.39,2.826-1.172l15.993-15.993C32.377,385.106,32.377,382.575,30.815,381.013
			z"/>
	</g>
</g>
<g>
	<g>
		<path d="M30.814,381.013L14.821,365.02c-1.561-1.562-4.091-1.562-5.653,0c-1.562,1.562-1.562,4.092,0,5.654l15.994,15.993
			c0.781,0.781,1.804,1.172,2.827,1.172c1.022,0,2.046-0.39,2.825-1.172C32.376,385.106,32.376,382.575,30.814,381.013z"/>
	</g>
</g>
<g>
	<g>
		<path d="M195.917,379.842h-47.979c-2.21,0-3.998,1.788-3.998,3.998c0,2.21,1.788,3.999,3.998,3.999h47.979
			c2.21,0,3.999-1.789,3.999-3.999C199.916,381.63,198.127,379.842,195.917,379.842z"/>
	</g>
</g>
<g>
	<g>
		<path d="M190.748,365.02c-1.562-1.562-4.092-1.562-5.654,0l-15.993,15.993c-1.562,1.562-1.562,4.092,0,5.654
			c0.781,0.781,1.804,1.172,2.827,1.172c1.023,0,2.046-0.39,2.827-1.172l15.993-15.993
			C192.31,369.113,192.31,366.582,190.748,365.02z"/>
	</g>
</g>
<g>
	<g>
		<path d="M190.748,397.007l-15.993-15.994c-1.562-1.562-4.092-1.562-5.654,0s-1.562,4.092,0,5.654l15.993,15.993
			c0.781,0.781,1.804,1.172,2.827,1.172s2.046-0.39,2.827-1.172C192.31,401.099,192.31,398.569,190.748,397.007z"/>
	</g>
</g>
<g>
	<g>
		<path d="M68.862,414.937c-1.561-1.562-4.091-1.562-5.653,0l-33.924,33.931c-1.562,1.561-1.562,4.092,0,5.654
			c0.781,0.78,1.804,1.171,2.827,1.171c1.022,0,2.046-0.391,2.827-1.171l33.923-33.931
			C70.424,419.029,70.424,416.499,68.862,414.937z"/>
	</g>
</g>
<g>
	<g>
		<path d="M49.074,430.727c-2.21,0-3.999,1.788-3.999,3.998v22.632c0,2.21,1.789,3.998,3.999,3.998c2.21,0,3.998-1.788,3.998-3.998
			v-22.632C53.072,432.515,51.284,430.727,49.074,430.727z"/>
	</g>
</g>
<g>
	<g>
		<path d="M49.073,430.727l-22.616,0.008c-2.21,0-3.998,1.788-3.998,3.998c0,2.21,1.792,3.999,3.998,3.999l22.616-0.008
			c2.21,0,3.998-1.789,3.998-3.999C53.071,432.515,51.279,430.727,49.073,430.727z"/>
	</g>
</g>
<g>
	<g>
		<path d="M170.647,313.159c-1.561-1.562-4.091-1.562-5.653,0l-33.932,33.931c-1.562,1.561-1.562,4.091,0,5.653
			c0.781,0.781,1.805,1.172,2.827,1.172c1.024,0,2.046-0.39,2.827-1.172l33.931-33.931
			C172.209,317.251,172.209,314.721,170.647,313.159z"/>
	</g>
</g>
<g>
	<g>
		<path d="M150.859,306.334c-2.21,0-3.998,1.789-3.998,3.999v22.615c0,2.21,1.788,3.999,3.998,3.999s3.998-1.789,3.998-3.999
			v-22.615C154.857,308.123,153.069,306.334,150.859,306.334z"/>
	</g>
</g>
<g>
	<g>
		<path d="M173.474,328.958l-22.615-0.008c-2.206,0-3.998,1.788-3.998,3.998c0,2.21,1.788,3.999,3.998,3.999l22.615,0.008
			c2.206,0,3.998-1.789,3.998-3.999C177.472,330.746,175.684,328.958,173.474,328.958z"/>
	</g>
</g>
<g>
	<g>
		<path d="M99.966,427.822c-2.21,0-3.999,1.789-3.999,3.998v47.98c0,2.21,1.789,3.998,3.999,3.998s3.998-1.788,3.998-3.998v-47.98
			C103.964,429.611,102.176,427.822,99.966,427.822z"/>
	</g>
</g>
<g>
	<g>
		<path d="M118.794,468.976l-16.009-16c-1.562-1.562-4.092-1.562-5.654,0c-1.562,1.561-1.562,4.091,0,5.653l16.009,16.001
			c0.781,0.781,1.804,1.172,2.827,1.172c1.023,0,2.046-0.39,2.827-1.172C120.356,473.068,120.356,470.538,118.794,468.976z"/>
	</g>
</g>
<g>
	<g>
		<path d="M102.786,452.976c-1.562-1.562-4.096-1.562-5.658,0l-15.978,16c-1.558,1.562-1.558,4.092,0.004,5.654
			c0.78,0.781,1.804,1.172,2.827,1.172c1.022,0,2.05-0.39,2.83-1.172l15.979-16.001C104.348,457.068,104.348,454.53,102.786,452.976
			z"/>
	</g>
</g>
<g>
	<g>
		<path d="M99.974,283.875c-2.21,0-3.999,1.789-3.999,3.998v47.988c0,2.21,1.789,3.998,3.999,3.998c2.21,0,3.998-1.788,3.998-3.998
			v-47.988C103.972,285.664,102.184,283.875,99.974,283.875z"/>
	</g>
</g>
<g>
	<g>
		<path d="M102.801,309.037l-15.994-15.994c-1.561-1.562-4.091-1.562-5.653,0c-1.562,1.562-1.562,4.092,0,5.654l15.993,15.993
			c0.781,0.781,1.804,1.171,2.827,1.171s2.046-0.39,2.827-1.171C104.363,313.129,104.363,310.599,102.801,309.037z"/>
	</g>
</g>
<g>
	<g>
		<path d="M118.794,293.051c-1.562-1.562-4.092-1.562-5.654,0l-15.993,15.986c-1.562,1.561-1.562,4.091,0,5.653
			c0.781,0.781,1.804,1.171,2.827,1.171s2.046-0.39,2.827-1.171l15.993-15.985C120.356,297.143,120.356,294.613,118.794,293.051z"/>
	</g>
</g>
<g>
	<g>
		<path d="M170.647,448.86l-33.923-33.923c-1.561-1.562-4.092-1.562-5.654,0c-1.562,1.561-1.562,4.092,0,5.654l33.924,33.923
			c0.78,0.78,1.804,1.171,2.827,1.171c1.022,0,2.046-0.391,2.826-1.171C172.209,452.953,172.209,450.422,170.647,448.86z"/>
	</g>
</g>
<g>
	<g>
		<path d="M173.482,430.727h-22.639c-2.21,0-3.998,1.788-3.998,3.998c0,2.21,1.788,3.999,3.998,3.999h22.639
			c2.21,0,3.998-1.789,3.998-3.999C177.48,432.515,175.692,430.727,173.482,430.727z"/>
	</g>
</g>
<g>
	<g>
		<path d="M154.842,434.717c-0.004-2.202-1.792-3.99-3.998-3.99h-0.004c-2.21,0-3.998,1.796-3.994,4.006l0.023,22.616
			c0.004,2.202,1.792,3.99,3.998,3.99h0.004c2.21,0,3.998-1.796,3.994-4.006L154.842,434.717z"/>
	</g>
</g>
<g>
	<g>
		<path d="M68.877,347.075l-33.938-33.931c-1.562-1.562-4.092-1.562-5.654,0c-1.562,1.561-1.562,4.091,0,5.653l33.939,33.931
			c0.78,0.781,1.804,1.172,2.826,1.172c1.024,0,2.046-0.391,2.827-1.172C70.439,351.167,70.439,348.637,68.877,347.075z"/>
	</g>
</g>
<g>
	<g>
		<path d="M49.081,328.942l-22.624-0.008c-2.206,0-3.998,1.788-3.998,3.998c0,2.21,1.788,3.999,3.998,3.999l22.624,0.008
			c2.207,0,3.998-1.789,3.998-3.999C53.079,330.73,51.291,328.942,49.081,328.942z"/>
	</g>
</g>
<g>
	<g>
		<path d="M49.089,306.326c-2.206,0-3.999,1.789-3.999,3.999l-0.008,22.615c0,2.21,1.789,3.999,3.999,3.999
			c2.207,0,3.999-1.789,3.998-3.999l0.008-22.615C53.087,308.115,51.299,306.326,49.089,306.326z"/>
	</g>
</g>
<g>
	<g>
		<path d="M110.805,373.017c-1.561-1.562-4.092-1.562-5.654,0l-16.017,16.017c-1.562,1.561-1.562,4.091,0,5.653
			c0.781,0.781,1.805,1.172,2.827,1.172c1.024,0,2.046-0.391,2.827-1.172l16.017-16.016
			C112.367,377.109,112.367,374.579,110.805,373.017z"/>
	</g>
</g>
<g>
	<g>
		<path d="M110.782,389.01l-15.993-15.993c-1.561-1.562-4.092-1.562-5.654,0c-1.562,1.561-1.562,4.092,0,5.654l15.994,15.992
			c0.78,0.781,1.804,1.172,2.826,1.172c1.023,0,2.045-0.39,2.827-1.172C112.344,393.102,112.344,390.572,110.782,389.01z"/>
	</g>
</g>
<g>
</g>
<g>
</g>
<g>
</g>
<g>
</g>
<g>
</g>
<g>
</g>
<g>
</g>
<g>
</g>
<g>
</g>
<g>
</g>
<g>
</g>
<g>
</g>
<g>
</g>
<g>
</g>
<g>
</g>
</svg>
